<svg xmlns="http://www.w3.org/2000/svg" xmlns:bx="https://boxy-svg.com" viewBox="403.87 401.43 181.33 162.54"><defs><bx:export><bx:file format="svg"/></bx:export></defs><path d="M 476.709 401.681 C 480.337 401.329 485.04 401.452 488.773 401.45 C 489.025 455.506 488.988 509.562 488.663 563.617 C 466.771 563.476 452.649 559.918 434.844 546.609 C 399.267 518.191 393.386 466.408 422.134 431.069 C 435.604 414.297 455.292 403.695 476.709 401.681 Z" style="fill: rgb(118, 171, 174);"/><path d="M 503.622 401.703 C 526.14 401.844 544.518 408.225 560.864 424.326 C 576.483 439.684 585.252 460.69 585.189 482.594 C 585.321 506.689 576.964 525.347 560.078 542.425 C 541.61 558.883 524.808 564.104 500.745 563.968 L 500.734 453.741 L 500.749 418.421 C 500.746 414.296 499.802 406.373 501.291 402.289 C 501.524 401.65 502.822 401.784 503.622 401.703 Z" style="fill: rgb(118, 171, 174);"/></svg>