<svg xmlns="http://www.w3.org/2000/svg" xmlns:bx="https://boxy-svg.com" viewBox="143.31 392.55 730.44 194.8"><defs><bx:export><bx:file format="svg"/></bx:export></defs><path d="M556.609 465.055C560.617 456.637 564.469 449.903 570.961 443.172C598.682 414.434 649.66 413.704 678.074 441.983C700.031 463.837 701.036 486.85 701.315 515.742C663.502 516.162 625.685 516.056 587.874 515.424C589.536 526.074 594.743 537.124 603.207 544.036C610.73 550.246 620.408 553.22 630.119 552.308C644.465 550.834 652.02 543.583 660.486 533.065L699.92 532.94C695.246 544.003 692.27 551.786 684.449 561.357C664.795 585.408 638.899 590.329 609.628 585.882C584.678 580.719 573.201 570.639 558.544 550.203C557.891 559.719 558.373 575.411 558.377 585.348C549.354 584.725 529.992 584.856 520.652 585.002L520.685 584.557C521.312 575.378 520.882 565.448 520.983 556.194C520.825 541.158 521.212 526.025 520.969 510.996C520.632 490.143 520.915 460.139 492.697 459.434C450.585 458.381 456.849 500.721 456.994 529.337L456.956 584.791C438.773 585.255 416.687 583.997 399.3 585.039C398.788 579.869 398.99 571.818 398.989 566.52L399.377 525.929L399.4 455.34C399.351 444.604 398.988 434.375 399.083 423.535C412.265 423.336 425.927 423.94 439.657 423.702C439.699 430.142 439.604 437.188 440.045 443.548C454.689 429.436 465.22 424.36 485.055 421.69C491.964 420.712 505.778 422.395 512.587 424.611C536.249 432.314 545.579 444.3 556.609 465.055ZM587.69 492.416C601.168 492.255 614.647 492.198 628.125 492.245C639.099 492.308 650.616 492.205 661.547 492.472C655.924 468.742 646.522 456.952 620.654 457.595C599.124 462.251 592.945 471.438 587.69 492.416Z" style="fill: rgb(118, 171, 174);"/><path d="M248.05 423.548C258.684 423.167 272.271 423.915 283.743 423.698C294.241 440.877 309.262 461.53 321.118 478.16C334.057 460.96 345.189 442.451 358.208 425.353C360.104 422.864 367.814 423.496 370.875 423.614C378.411 423.903 385.759 423.779 393.291 423.501C393.11 428.572 393.406 434.321 393.297 439.593C392.929 470.743 392.845 501.896 393.048 533.047C393.17 546.427 394.345 572.159 393.122 584.861C383.893 584.972 366.645 585.041 356.657 585.073C356.424 584.871 356.191 584.67 355.959 584.468C355.194 579.245 355.441 569.521 355.441 563.894L355.469 530.25C355.489 516.575 356.048 500.451 355.611 487.067L320.403 537.737C316.662 533.846 313.077 528.009 309.889 523.553C301.478 511.801 293.612 498.127 284.518 487.003C283.823 519.149 285.533 553.158 284.524 584.956C272.429 585.011 260.335 584.984 248.241 584.875C247.621 570.653 248.023 554.231 248.03 539.844L248.057 459.824C248.059 448.731 248.573 434.41 248.05 423.548Z" style="fill: rgb(118, 171, 174);"/><path d="M214.877 423.71C216.655 423.262 225.45 423.426 227.8 423.446C228.434 440.354 227.955 460.856 227.974 478.112L227.965 585.004C204.821 584.005 194.321 582.443 175.003 568.633C171.107 565.455 167.862 562.551 164.427 558.865C137.45 529.914 136.234 483.261 161.249 452.622C174.466 436.113 193.821 425.678 214.877 423.71Z" style="fill: rgb(118, 171, 174);"/><path d="M791.538 423.608C814.672 424.119 832.43 428.783 849.125 445.602C882.758 479.483 881.401 530.793 848.321 563.867C829.286 581.238 814.293 584.643 789.523 585.152C789.177 565.894 789.448 545.825 789.456 526.513L789.607 449.981C789.696 442.475 789.1 433.392 789.493 425.956C789.564 424.617 790.635 424.116 791.538 423.608Z" style="fill: rgb(118, 171, 174);"/><path d="M676.877 423.498L719.823 423.613L751.717 484.274C755.835 492.134 764.26 507.065 767.025 515.239C767.651 517.087 767.147 533.486 767.135 536.789L767.021 584.749C757.854 585.645 737.72 584.859 727.54 584.887C728.682 576.674 729.002 524.835 727.311 518.578C725.651 512.437 721.301 506.83 718.395 501.206C709.461 483.952 700.302 466.816 690.922 449.802C687.113 442.823 680.019 431.117 677.154 424.18L676.877 423.498Z" style="fill: rgb(118, 171, 174);"/><path d="M 428.215 385.412 C 428.722 385.303 431.234 385.343 431.905 385.348 C 432.086 389.432 431.949 394.383 431.955 398.55 L 431.952 424.366 C 425.342 424.124 422.343 423.748 416.825 420.412 C 415.714 419.645 414.787 418.944 413.806 418.053 C 406.1 411.061 405.754 399.794 412.898 392.395 C 416.673 388.406 422.201 385.887 428.215 385.412 Z" style="fill: rgb(118, 171, 174); transform-box: fill-box; transform-origin: 50% 50%;" transform="matrix(-0.009605, 0.999954, -0.999954, -0.009605, -0.00001, -0.000025)"/></svg>